<svg version="1.2" xmlns="http://www.w3.org/2000/svg" viewBox="214 369 730.0000000000001 260" width="731" height="260">
	<title>New Project</title>
	<style>
		.s0 { fill: #f27e1a } 
	</style>
	<path id="Path 14" fill-rule="evenodd" class="s0" d="m498.4 464.8h52.7v-17.1h-62.1c-6.4 0-11.6 5.1-11.6 11.5v87.1h21v-40.5h34v-16.8h-34c0-0.9 0-24.2 0-24.2zm99.3 25q3.6 0.9 5.7 3.9 2.1 2.9 2.1 8.7h-25.2q-6.7 0-11.3 0.9-4.6 0.9-8.6 3.1-4 2.3-6.2 6.4-2.2 4-2.8 10.2v1.9q0 10.2 6 15.6 5.8 5.8 16.5 5.8h51.1v-45.3q0-12.6-5.5-18.4-5.6-5.9-11.4-7.2-5.8-1.4-12.8-1.4h-39.1v15h31.9q5.9 0 9.6 0.8zm-21.3 41.6q-2-0.5-3.4-2.2-1.5-1.7-1.5-4.8 0-4.7 3.4-6.2 3.3-1.4 8.1-1.4h22.5v15.1h-23.8q-3.3 0-5.3-0.5zm64.3 14.9h19.7v-98.6h-19.7zm63.5-72.3q-10.7 0-16.6 3.1-5.9 3.2-8.8 6.1-2.9 3-5.1 7-2.2 3.9-3.4 8.5-1.2 4.5-1.2 9.6v2.8q0 14 7.6 24.2 3.7 4.4 8.2 6.7 4.4 2.3 9.5 3.4 4.9 0.9 11.2 0.9h16.3v25.9h19.1v-98.2zm-1.6 56.3q-3.1-0.4-5.9-2-2.7-1.7-5.2-6-2.6-4.3-2.6-12.5v-4.8q0.9-9.2 6.2-12.4 5.3-3.1 14.9-3.1h5.9l6 0.2v41.1h-11.8zm121.3-5.3q2.7-7.2 2.7-15 0-8.3-2.1-13.6-2-5.2-4-8.2-1.9-2.9-5.9-6.8-4.1-4-11.3-6.5-7.2-2.5-15-2.5-8.2 0-15.4 2.6-7.2 2.7-11.2 6.6-3.9 3.9-5.7 6.8-1.9 2.9-4 8.3-2.1 5.4-2.1 13.3 0 4.1 0.7 7.7 0.7 3.6 2.9 9.3 2.1 5.7 7.2 10.5 5 4.8 12.5 7.5 7.6 2.7 15.1 2.7 4 0 7.7-0.7 3.7-0.7 9.2-2.7 5.5-2 10.7-6.8 5.3-5.3 8-12.5zm-51.2-2.1q-2.9-5.7-2.9-12.7 0-5.2 1.3-9.2 1.3-3.9 3.8-6.7 2.4-2.7 6.1-4.5 3.9-1.5 7.4-1.5 3.2 0 7 1.4 5.9 2.4 8.6 7.8 2.7 5.5 2.7 12.7 0 5.1-1.6 10-1.6 5-6.4 8.4-4.8 3.4-10.7 3.4-1.6 0-3.3-0.2-1.8-0.3-2.9-0.9-6.1-2.4-9.1-8zm81.9-33h15.3q5.5 0 8.1 1.1 2.6 1.1 3.3 3.4 0.7 2.2 0.9 4.2 0.2 2 0.2 4.2v43.4h19.4v-45.8q0-10.2-3.6-16-3.6-5.9-10.2-8.2-6.6-2.3-16.6-2.3h-35.8v72.3h19zm-439.4 66.2v-119.2c0-11.4-9.3-20.7-20.7-20.7h-119.3c-11.4 0-20.6 9.3-20.6 20.7v119.2c0 11.5 9.2 20.7 20.6 20.7h119.3c11.4 0 20.7-9.2 20.7-20.7zm-19.2-136.9c8.9 0 16.2 7.3 16.2 16.2v122.2c0 8.9-7.3 16.2-16.2 16.2h-122.2c-9 0-16.2-7.3-16.2-16.2v-122.2c0-8.9 7.2-16.2 16.2-16.2z"/>
	<path id="Path 15" class="s0" d="m297.3 447.4c-6.4 0-11.6 5.2-11.6 11.6v75.4c0 6.4 5.2 11.6 11.6 11.6h75.4c6.4 0 11.6-5.2 11.6-11.6v-75.4c0-6.4-5.2-11.6-11.6-11.6m-30.5 79.8h-14.4v-37.8h14.4zm-23.1 0h-7.1c-4 0-7.2-3.2-7.2-7.1v-11.7h14.3zm46.1-7.2c0 4-3.2 7.2-7.1 7.2h-7.2v-60.9h14.3z"/>
</svg>